<svg width="192" height="192" viewBox="0 0 192 192" fill="none" xmlns="http://www.w3.org/2000/svg">
<g clip-path="url(#clip0_311_435)">
<path d="M96.0004 10.6667C79.123 10.6667 62.6247 15.6715 48.5917 25.048C34.5587 34.4246 23.6213 47.7518 17.1626 63.3444C10.704 78.937 9.01408 96.0947 12.3067 112.648C15.5993 129.201 23.7265 144.406 35.6606 156.34C47.5947 168.274 62.7996 176.401 79.3527 179.694C95.9057 182.986 113.063 181.296 128.656 174.838C144.249 168.379 157.576 157.442 166.952 143.409C176.329 129.376 181.334 112.877 181.334 96.0001C181.334 73.3683 172.343 51.6634 156.34 35.6603C140.337 19.6572 118.632 10.6667 96.0004 10.6667ZM96.0004 170.667C81.2327 170.667 66.7967 166.288 54.5178 158.083C42.2389 149.879 32.6687 138.217 27.0174 124.574C21.366 110.93 19.8874 95.9173 22.7684 81.4333C25.6494 66.9494 32.7607 53.6451 43.2031 43.2028C53.6454 32.7605 66.9497 25.6491 81.4336 22.7681C95.9175 19.8871 110.931 21.3657 124.574 27.0171C138.218 32.6684 149.879 42.2386 158.083 54.5175C166.288 66.7964 170.667 81.2324 170.667 96.0001C170.667 115.803 162.8 134.795 148.798 148.797C134.795 162.8 115.803 170.667 96.0004 170.667Z" fill="white"/>
<path d="M149.334 64.5333C148.334 63.54 146.983 62.9824 145.574 62.9824C144.165 62.9824 142.813 63.54 141.814 64.5333L82.6136 123.467L50.6136 91.4667C49.6376 90.4129 48.283 89.7899 46.8477 89.7349C45.4124 89.6799 44.0141 90.1973 42.9603 91.1733C41.9065 92.1493 41.2836 93.504 41.2286 94.9392C41.1736 96.3745 41.691 97.7729 42.667 98.8267L82.6136 138.667L149.334 72.1067C149.834 71.6109 150.23 71.021 150.501 70.3711C150.772 69.7211 150.911 69.0241 150.911 68.32C150.911 67.6159 150.772 66.9188 150.501 66.2689C150.23 65.619 149.834 65.0291 149.334 64.5333Z" fill="white"/>
<path d="M25 18L20 23M20 18L25 23" stroke="white" stroke-width="1.5" stroke-linecap="round" stroke-linejoin="round"/>
<circle cx="4.5" cy="136.5" r="2.5" fill="white"/>
</g>
<defs>
<clipPath id="clip0_311_435">
<rect width="192" height="192" fill="white"/>
</clipPath>
</defs>
</svg>
